<svg xmlns="http://www.w3.org/2000/svg" viewBox="0 0 1000 800">
  <!-- Green mountains -->
  <path d="M230 90 C280 60, 320 60, 370 90 C420 120, 460 120, 510 90 C560 60, 600 60, 650 90 C700 120, 740 120, 790 90 C840 60, 880 60, 930 90 C980 120, 1020 120, 1070 90" 
        fill="none" stroke="#228B22" stroke-width="8"/>
  
  <!-- Orange arc -->
  <path d="M750 160 C800 140, 850 140, 900 160 C950 180, 1000 200, 1050 240" 
        fill="none" stroke="#FF6600" stroke-width="8"/>
  
  <!-- Blue arc (left) -->
  <path d="M40 320 C90 300, 140 300, 190 320 C240 340, 290 360, 340 400" 
        fill="none" stroke="#0080FF" stroke-width="8"/>
  
  <!-- Orange arc (bottom left) -->
  <path d="M90 420 C140 400, 190 400, 240 420 C290 440, 340 460, 390 500" 
        fill="none" stroke="#FF6600" stroke-width="8"/>
  
  <!-- Main building structure -->
  <g fill="#555555">
    <!-- Left tower -->
    <rect x="130" y="210" width="20" height="80"/>
    <rect x="140" y="200" width="40" height="10"/>
    <rect x="150" y="190" width="20" height="10"/>
    <rect x="155" y="180" width="10" height="10"/>
    
    <!-- Main gate structure -->
    <rect x="130" y="290" width="300" height="120"/>
    
    <!-- Gate arch -->
    <path d="M180 410 Q280 350 380 410 Z" fill="white"/>
    <path d="M180 410 Q280 360 380 410" fill="none" stroke="#555555" stroke-width="8"/>
    
    <!-- Right tower -->
    <rect x="380" y="210" width="20" height="80"/>
    <rect x="370" y="200" width="40" height="10"/>
    <rect x="380" y="190" width="20" height="10"/>
    <rect x="385" y="180" width="10" height="10"/>
    
    <!-- Battlements on main structure -->
    <rect x="130" y="280" width="15" height="10"/>
    <rect x="155" y="280" width="15" height="10"/>
    <rect x="180" y="280" width="15" height="10"/>
    <rect x="205" y="280" width="15" height="10"/>
    <rect x="230" y="280" width="15" height="10"/>
    <rect x="255" y="280" width="15" height="10"/>
    <rect x="280" y="280" width="15" height="10"/>
    <rect x="305" y="280" width="15" height="10"/>
    <rect x="330" y="280" width="15" height="10"/>
    <rect x="355" y="280" width="15" height="10"/>
    <rect x="380" y="280" width="15" height="10"/>
    <rect x="405" y="280" width="15" height="10"/>
    <rect x="415" y="280" width="15" height="10"/>
  </g>
  
  <!-- Bridge/viaduct structure -->
  <g fill="#555555">
    <!-- Bridge pillars -->
    <rect x="450" y="320" width="15" height="90"/>
    <rect x="480" y="330" width="15" height="80"/>
    <rect x="510" y="340" width="15" height="70"/>
    <rect x="540" y="350" width="15" height="60"/>
    <rect x="570" y="360" width="15" height="50"/>
    <rect x="600" y="370" width="15" height="40"/>
    <rect x="630" y="380" width="15" height="30"/>
    <rect x="660" y="390" width="15" height="20"/>
    <rect x="690" y="395" width="15" height="15"/>
    <rect x="720" y="398" width="15" height="12"/>
    <rect x="750" y="400" width="15" height="10"/>
    <rect x="780" y="402" width="15" height="8"/>
    <rect x="810" y="404" width="15" height="6"/>
    <rect x="840" y="405" width="15" height="5"/>
    <rect x="870" y="406" width="15" height="4"/>
    <rect x="900" y="407" width="15" height="3"/>
    <rect x="930" y="408" width="15" height="2"/>
    
    <!-- Bridge deck -->
    <rect x="440" y="310" width="520" height="8"/>
  </g>
  
  <!-- Blue connecting lines -->
  <path d="M440 315 L960 410" fill="none" stroke="#0080FF" stroke-width="4"/>
  
  <!-- Orange connecting lines -->
  <path d="M440 320 L960 415" fill="none" stroke="#FF6600" stroke-width="4"/>
  
  <!-- Text -->
  <text x="770" y="480" font-family="Arial, sans-serif" font-size="48" font-weight="bold" fill="#333333">Indian</text>
  <text x="640" y="540" font-family="Arial, sans-serif" font-size="48" font-weight="bold" fill="#333333">Institute of</text>
  <text x="640" y="600" font-family="Arial, sans-serif" font-size="48" font-weight="bold" fill="#333333">Technology</text>
  <text x="770" y="660" font-family="Arial, sans-serif" font-size="48" font-weight="bold" fill="#333333">Mandi</text>
</svg>